<svg width="197" height="156" viewBox="0 0 197 156" fill="none" xmlns="http://www.w3.org/2000/svg">
<path d="M98.1419 139.065C98.1419 142.521 96.1452 145.661 93.0205 147.126C91.8123 147.697 90.5178 147.974 89.2316 147.974C87.1948 147.974 85.1771 147.274 83.5472 145.922L34.8463 105.566H8.90819C3.98918 105.571 0 101.579 0 96.6603V61.1688C0 56.2477 3.98918 52.2585 8.90819 52.2585H34.8484L83.5493 11.9029C86.2102 9.69742 89.9 9.22723 93.0226 10.7031C96.1452 12.1685 98.144 15.3101 98.144 18.7637L98.1419 139.065ZM132.377 125.145C132.16 125.16 131.951 125.169 131.736 125.169C129.383 125.169 127.114 124.239 125.438 122.561L124.247 121.365C121.122 118.247 120.755 113.307 123.386 109.76C130.057 100.765 133.579 90.1031 133.579 78.9178C133.579 66.887 129.581 55.6025 122.016 46.2832C119.136 42.741 119.401 37.5964 122.629 34.3705L123.819 33.1792C125.598 31.3997 127.983 30.4298 130.564 30.5837C133.077 30.7102 135.423 31.893 137.017 33.8412C147.511 46.6817 153.054 62.2716 153.054 78.9199C153.054 94.4254 148.152 109.185 138.875 121.595C137.325 123.663 134.955 124.962 132.377 125.145ZM169.207 152.675C167.596 154.579 165.266 155.722 162.772 155.828C162.65 155.832 162.525 155.836 162.399 155.836C160.04 155.836 157.775 154.904 156.099 153.228L154.929 152.058C151.659 148.79 151.437 143.563 154.41 140.025C168.777 122.938 176.692 101.238 176.692 78.9178C176.692 55.7016 168.218 33.3521 152.837 15.9869C149.719 12.4616 149.877 7.12511 153.196 3.79377L154.364 2.62358C156.097 0.881998 158.349 -0.0773445 160.931 0.00488492C163.384 0.0744637 165.703 1.15821 167.333 2.99255C185.925 23.9252 196.166 50.8923 196.166 78.9178C196.17 105.883 186.595 132.078 169.207 152.675Z" fill="#99A3AE"/>
</svg>
