<svg width="150" height="151" viewBox="0 0 150 151" fill="none" xmlns="http://www.w3.org/2000/svg">
<circle cx="75" cy="75.25" r="75" fill="#99A3AE"/>
<path d="M110.005 55.1968C108.508 53.6283 106.44 52.7015 104.087 52.7015H92.2529V52.5589C92.2529 50.7766 91.5399 49.0656 90.3279 47.9249C89.116 46.7129 87.4762 46 85.6939 46H64.3061C62.4525 46 60.8127 46.7129 59.6008 47.9249C58.3888 49.1369 57.6759 50.7766 57.6759 52.5589V52.7015H45.9125C43.5599 52.7015 41.4924 53.6283 39.9952 55.1968C38.4981 56.6939 37.5 58.8327 37.5 61.1141V96.6179C37.5 98.9705 38.4268 101.038 39.9952 102.535C41.4924 104.032 43.6312 105.03 45.9125 105.03H104.087C106.44 105.03 108.508 104.104 110.005 102.535C111.502 101.038 112.5 98.8992 112.5 96.6179V61.1141C112.5 58.7614 111.573 56.6939 110.005 55.1968ZM108.793 96.6179H108.721C108.721 97.9011 108.222 99.0418 107.367 99.8973C106.511 100.753 105.371 101.252 104.087 101.252H45.9125C44.6293 101.252 43.4886 100.753 42.6331 99.8973C41.7776 99.0418 41.2785 97.9011 41.2785 96.6179V61.1141C41.2785 59.8308 41.7776 58.6901 42.6331 57.8346C43.4886 56.9791 44.6293 56.48 45.9125 56.48H59.6721C60.7414 56.48 61.597 55.6245 61.597 54.5551V52.4876C61.597 51.7034 61.8821 50.9905 62.3812 50.4914C62.8802 49.9924 63.5932 49.7072 64.3774 49.7072H85.6939C86.4781 49.7072 87.1911 49.9924 87.6901 50.4914C88.1892 50.9905 88.4743 51.7034 88.4743 52.4876V54.5551C88.4743 55.6245 89.3298 56.48 90.3992 56.48H104.159C105.442 56.48 106.583 56.9791 107.438 57.8346C108.294 58.6901 108.793 59.8308 108.793 61.1141V96.6179Z" fill="white"/>
<path d="M74.9999 61.3281C70.152 61.3281 65.7319 63.3243 62.595 66.4612C59.3868 69.6694 57.4619 74.0182 57.4619 78.8661C57.4619 83.7141 59.4581 88.1342 62.595 91.2711C65.8032 94.4793 70.152 96.4042 74.9999 96.4042C79.8478 96.4042 84.268 94.408 87.4049 91.2711C90.6131 88.0629 92.538 83.7141 92.538 78.8661C92.538 74.0182 90.5418 69.5981 87.4049 66.4612C84.268 63.3243 79.8478 61.3281 74.9999 61.3281ZM84.6958 88.6333C82.2005 91.0572 78.7785 92.6257 74.9999 92.6257C71.2214 92.6257 67.7994 91.0572 65.3041 88.6333C62.8089 86.138 61.3117 82.716 61.3117 78.9374C61.3117 75.1589 62.8802 71.7369 65.3041 69.2416C67.7994 66.7464 71.2214 65.2492 74.9999 65.2492C78.7785 65.2492 82.2005 66.8177 84.6958 69.2416C87.191 71.7369 88.6882 75.1589 88.6882 78.9374C88.7594 82.716 87.191 86.138 84.6958 88.6333Z" fill="white"/>
<path d="M100.38 68.2435C102.309 68.2435 103.873 66.6795 103.873 64.7502C103.873 62.8209 102.309 61.2568 100.38 61.2568C98.4507 61.2568 96.8867 62.8209 96.8867 64.7502C96.8867 66.6795 98.4507 68.2435 100.38 68.2435Z" fill="white"/>
</svg>
