<svg width="165" height="196" viewBox="0 0 165 196" fill="none" xmlns="http://www.w3.org/2000/svg">
<path d="M155.571 25.9757H139.071V9.44588C139.071 4.25036 134.828 0 129.644 0H9.42829C4.24262 0 0 4.25036 0 9.44588V160.578C0 165.773 4.24262 170.024 9.42867 170.024H25.9287V186.554C25.9287 191.749 30.1695 196 35.3574 196H115.498C120.681 196 128.017 193.086 131.79 189.527L158.129 164.69C161.908 161.131 164.995 153.967 164.995 148.771L165 35.4223C165 30.2264 160.757 25.9757 155.571 25.9757ZM25.928 35.422V162.94H9.42829C8.15088 162.94 7.07141 161.858 7.07141 160.578V9.44588C7.07141 8.16614 8.15088 7.0847 9.42829 7.0847H129.645C130.92 7.0847 132.002 8.16614 132.002 9.44588V25.9761H35.3567C30.1687 25.9761 25.928 30.2264 25.928 35.422ZM153.282 159.532L126.944 184.368C126.404 184.876 125.701 185.374 124.926 185.848V164.12C124.926 162.498 125.579 161.038 126.656 159.952C127.743 158.873 129.199 158.217 130.819 158.217H154.402C154.036 158.715 153.662 159.173 153.282 159.532ZM157.923 148.771C157.923 149.472 157.796 150.284 157.603 151.132H130.818C123.665 151.146 117.869 156.953 117.854 164.12V188.629C117.013 188.799 116.202 188.915 115.497 188.915H35.3567V188.915C34.0766 188.915 32.9998 187.833 32.9998 186.554V35.4216C32.9998 34.1418 34.077 33.0604 35.3567 33.0604H155.571C156.848 33.0604 157.927 34.1418 157.927 35.4216L157.923 148.771Z" fill="#99A3AE"/>
<path d="M129.644 59.0356H61.2872C59.3331 59.0356 57.7515 60.6201 57.7515 62.5778C57.7515 64.5355 59.3335 66.1199 61.2872 66.1199H129.644C131.596 66.1199 133.18 64.5355 133.18 62.5778C133.18 60.6201 131.596 59.0356 129.644 59.0356Z" fill="#99A3AE"/>
<path d="M129.644 106.265H61.2872C59.3331 106.265 57.7515 107.849 57.7515 109.807C57.7515 111.765 59.3335 113.349 61.2872 113.349H129.644C131.596 113.349 133.18 111.765 133.18 109.807C133.18 107.849 131.596 106.265 129.644 106.265Z" fill="#99A3AE"/>
<path d="M99.0019 129.879H61.288C59.3338 129.879 57.7522 131.464 57.7522 133.421C57.7522 135.379 59.3338 136.963 61.288 136.963H99.0019C100.954 136.963 102.535 135.379 102.535 133.421C102.535 131.464 100.954 129.879 99.0019 129.879Z" fill="#99A3AE"/>
<path d="M129.644 82.6503H61.2872C59.3331 82.6503 57.7515 84.2348 57.7515 86.1925C57.7515 88.1502 59.3335 89.7346 61.2872 89.7346H129.644C131.596 89.7346 133.18 88.1502 133.18 86.1925C133.18 84.2348 131.596 82.6503 129.644 82.6503Z" fill="#99A3AE"/>
</svg>
