<svg width="210" height="192" viewBox="0 0 210 192" fill="none" xmlns="http://www.w3.org/2000/svg">
<path d="M54.6833 152.727C40.6752 152.727 28.2148 143.782 23.6902 130.464L23.3841 129.461C22.3171 125.934 21.8701 122.968 21.8701 120V60.4972L0.642408 131.17C-2.08775 141.565 4.13362 152.342 14.572 155.214L149.877 191.354C151.566 191.791 153.254 192 154.917 192C163.632 192 171.595 186.231 173.827 177.73L181.71 152.727H54.6833Z" fill="#99A3AE"/>
<path d="M78.7473 61.0918C88.399 61.0918 96.2466 53.2632 96.2466 43.6368C96.2466 34.0104 88.399 26.1818 78.7473 26.1818C69.0956 26.1818 61.2464 34.0104 61.2464 43.6368C61.2464 53.2632 69.0956 61.0918 78.7473 61.0918Z" fill="#99A3AE"/>
<path d="M188.123 0H56.8706C44.814 0 34.9956 9.79256 34.9956 21.8191V117.818C34.9956 129.844 44.814 139.637 56.8706 139.637H188.123C200.182 139.637 210 129.844 210 117.818V21.8191C210 9.79256 200.182 0 188.123 0ZM56.8706 17.455H188.123C190.54 17.455 192.499 19.4093 192.499 21.8191V83.7737L164.858 51.6043C161.926 48.175 157.681 46.3421 153.123 46.2382C148.591 46.2638 144.338 48.2709 141.433 51.7449L108.934 90.6499L98.3469 80.1159C92.3627 74.1473 82.6229 74.1473 76.6466 80.1159L52.4965 104.195V21.8191C52.4965 19.4093 54.456 17.455 56.8706 17.455Z" fill="#99A3AE"/>
</svg>
